<svg width="348" height="348" viewBox="0 0 348 348" fill="none" xmlns="http://www.w3.org/2000/svg">
<path fill-rule="evenodd" clip-rule="evenodd" d="M164.726 6.05085L164.726 6.05097L6.05087 164.726C2.88274 167.894 1.29867 169.478 0.705162 171.305C0.183098 172.911 0.183098 174.642 0.705162 176.249C1.29867 178.075 2.88274 179.66 6.05088 182.828L164.726 341.502L164.726 341.503C167.894 344.671 169.478 346.255 171.304 346.848C172.911 347.37 174.642 347.37 176.249 346.848C178.075 346.255 179.659 344.671 182.828 341.502L341.502 182.828L341.503 182.827C344.671 179.659 346.255 178.075 346.848 176.249C347.37 174.642 347.37 172.911 346.848 171.305C346.255 169.478 344.67 167.894 341.502 164.726L182.828 6.05096C179.659 2.88283 178.075 1.29876 176.249 0.705253C174.642 0.18319 172.911 0.18319 171.304 0.705253C169.478 1.29875 167.894 2.88279 164.726 6.05085ZM95 136.926V101H158.61L191.077 133.599L204.992 120.293H258V159.545L155.959 262H118.854V222.083L149.333 191.479L95 136.926ZM139.394 222.083L169.211 191.479L114.878 136.926H158.61L179.15 157.55L204.992 131.603H246.736L155.959 222.083H139.394Z" fill="#E3695E"/>
</svg>
